<?xml version="1.0" encoding="UTF-8"?>
<svg id="Layer_2" data-name="Layer 2" xmlns="http://www.w3.org/2000/svg" viewBox="0 0 297.52 278.69">
  <defs>
    <style>
      .cls-1 {
        fill: #005993;
      }

      .cls-1, .cls-2 {
        fill-rule: evenodd;
      }

      .cls-2 {
        fill: #0072bc;
      }
    </style>
  </defs>
  <g id="Layer_1-2" data-name="Layer 1">
    <g>
      <path class="cls-2" d="M90.67,8.52l-.85,.32-1.06,.41-.22,.09s-.03,.01-.05,.02c-3.21,1.27-6.38,2.66-9.49,4.16-.35,.17-.7,.34-1.04,.51-1.31,.65-2.17,1.75-2.47,3.18-.31,1.43,.02,2.79,.95,3.92,.18,.23,.37,.45,.54,.68,6.5,8.58,5.37,20.74-2.55,27.97-9.27,5.35-21.24,2.73-27.43-6.06-.16-.23-.32-.47-.48-.71-.79-1.22-1.98-1.95-3.44-2.09-1.45-.14-2.76,.34-3.77,1.39-3.9,4.04-26.57,30.54-23.68,36.93,.6,1.33,1.68,2.23,3.09,2.58,.28,.07,.57,.14,.85,.23,10.19,2.99,16.52,13.26,14.65,23.66-4.45,9.62-15.49,14.37-25.58,10.96-.27-.09-.54-.19-.8-.29-1.37-.52-2.76-.41-4.02,.34-5.06,2.99-5.13,41.48,0,44.51,1.26,.74,2.65,.86,4.02,.34,.27-.1,.53-.2,.8-.29,10.09-3.41,21.13,1.34,25.58,10.97,1.87,10.4-4.47,20.67-14.65,23.66-.28,.08-.56,.16-.85,.23-1.42,.36-2.49,1.25-3.09,2.58-.6,1.33-.57,2.73,.1,4.03,.56,1.08,1.13,2.16,1.71,3.23,5.93,10.81,13.3,20.8,21.87,29.68,1.01,1.05,2.32,1.53,3.77,1.39,1.45-.14,2.65-.87,3.44-2.09,.16-.24,.31-.48,.48-.71,6.19-8.79,18.16-11.41,27.43-6.06,7.93,7.23,9.06,19.39,2.55,27.97-.18,.23-.36,.46-.54,.68-.93,1.13-1.26,2.49-.95,3.91,.31,1.43,1.16,2.53,2.47,3.18,.35,.17,.69,.34,1.04,.51,3.9,1.89,7.93,3.61,12.01,5.13l22.8-39.49c-16.91-3.61-33.01-11.98-46.14-25.12-36.24-36.24-36.24-95,0-131.24,13.14-13.14,29.23-21.51,46.14-25.12L90.67,8.52h0Zm25.56,217.37l9.65-16.71c-31.6-6.18-56.83-33.65-57.75-68.32v-.05c0-.32,0-.64-.01-.97,0-.24,0-.48-.01-.71h0v-.04h0v-.03h0v-.04h0v-.03h0v-.03h0v-.03h0v-.03h0v-.04h0v-.03h0c0-.25,0-.49,.01-.73,0-.32,0-.64,.01-.97v-.05c.6-22.74,12.51-45.23,31.73-57.58,10.92-7.32,14.85-7.38,25.49-10.93l-9.13-15.81c-15.07,3.82-29.33,11.62-41.12,23.41-34.87,34.87-34.87,91.41,0,126.27,11.79,11.79,26.05,19.59,41.12,23.41h0Z"/>
      <polygon class="cls-1" points="90.11 0 217.08 0 257.3 69.67 297.52 139.34 257.3 209.02 217.08 278.69 90.11 278.69 161.19 155.56 237.51 139.34 161.21 123.16 90.11 0 90.11 0"/>
    </g>
  </g>
</svg>